<svg width="15" height="15" viewBox="0 0 15 15" fill="none" xmlns="http://www.w3.org/2000/svg">
<path d="M10.944 0.003121L8.99522 0C6.80579 0 5.39088 1.44892 5.39088 3.69152V5.39356H3.43143C3.26211 5.39356 3.125 5.53057 3.125 5.69957V8.16563C3.125 8.33463 3.26227 8.47149 3.43143 8.47149H5.39088V14.6941C5.39088 14.8631 5.528 15 5.69731 15H8.25384C8.42316 15 8.56027 14.863 8.56027 14.6941V8.47149H10.8513C11.0206 8.47149 11.1578 8.33463 11.1578 8.16563L11.1587 5.69957C11.1587 5.61843 11.1263 5.54071 11.069 5.48329C11.0116 5.42586 10.9334 5.39356 10.8521 5.39356H8.56027V3.95072C8.56027 3.25723 8.72584 2.90518 9.63091 2.90518L10.9437 2.90472C11.1129 2.90472 11.25 2.7677 11.25 2.59886V0.308979C11.25 0.140289 11.113 0.0034331 10.944 0.003121Z" fill="black"/>
</svg>
