<svg width="19" height="11" viewBox="0 0 19 11" fill="none" xmlns="http://www.w3.org/2000/svg">
<path d="M18.2406 9.68027C18.2194 9.63453 18.1996 9.59659 18.1813 9.56619C17.8776 9.01851 17.2974 8.34626 16.441 7.54927L16.4229 7.53102L16.4138 7.52207L16.4046 7.5129H16.3955C16.0068 7.14178 15.7606 6.89224 15.6575 6.76449C15.4689 6.52112 15.4267 6.27478 15.5297 6.02518C15.6026 5.8366 15.8761 5.43835 16.3498 4.82987C16.5989 4.5074 16.7963 4.24894 16.942 4.05423C17.9929 2.65489 18.4485 1.7607 18.3088 1.3713L18.2545 1.2803C18.218 1.22551 18.1239 1.17539 17.9722 1.12969C17.8201 1.08408 17.6258 1.07653 17.3889 1.10693L14.7648 1.12509C14.7223 1.11 14.6616 1.1114 14.5825 1.12969C14.5035 1.14797 14.464 1.15714 14.464 1.15714L14.4184 1.18L14.3821 1.20745C14.3517 1.22561 14.3183 1.25754 14.2818 1.30318C14.2455 1.34867 14.2152 1.40204 14.1909 1.46287C13.9053 2.19901 13.5804 2.88343 13.2159 3.5161C12.9911 3.89336 12.7847 4.22031 12.5962 4.49714C12.4079 4.77387 12.25 4.97776 12.1225 5.10846C11.9949 5.23928 11.8797 5.34409 11.7762 5.42326C11.6729 5.50246 11.5941 5.53593 11.5395 5.52369C11.4847 5.51145 11.4332 5.4993 11.3844 5.48715C11.2994 5.43237 11.231 5.35786 11.1795 5.26357C11.1277 5.16928 11.0929 5.0506 11.0747 4.90763C11.0565 4.76457 11.0458 4.64151 11.0428 4.53805C11.0399 4.43471 11.0412 4.28855 11.0474 4.09997C11.0537 3.91129 11.0565 3.78363 11.0565 3.7167C11.0565 3.48548 11.061 3.23454 11.0701 2.96381C11.0793 2.69309 11.0867 2.47858 11.0929 2.32056C11.0991 2.16238 11.102 1.99502 11.102 1.81858C11.102 1.64215 11.0913 1.50378 11.0701 1.40335C11.0491 1.30305 11.017 1.2057 10.9747 1.11131C10.932 1.01702 10.8697 0.944079 10.7879 0.892299C10.7059 0.840584 10.6039 0.799543 10.4826 0.769051C10.1607 0.696079 9.75068 0.656605 9.25248 0.650468C8.12271 0.638322 7.39678 0.71139 7.07483 0.869574C6.94728 0.936408 6.83185 1.02773 6.72864 1.14324C6.61927 1.27713 6.60402 1.3502 6.68297 1.36222C7.04748 1.41691 7.30554 1.54773 7.45741 1.75456L7.51214 1.86416C7.55472 1.94324 7.59723 2.08324 7.63977 2.28396C7.68224 2.48469 7.70966 2.70674 7.72172 2.94997C7.75204 3.39416 7.75204 3.77439 7.72172 4.0907C7.69131 4.40713 7.66258 4.65347 7.63517 4.8299C7.60776 5.00634 7.56678 5.14931 7.51214 5.25878C7.45741 5.36828 7.421 5.43521 7.40274 5.45951C7.38452 5.4838 7.36933 5.49911 7.35727 5.50512C7.27831 5.53542 7.1962 5.55086 7.11122 5.55086C7.0261 5.55086 6.9229 5.50822 6.80143 5.423C6.68 5.33779 6.55398 5.22074 6.42335 5.07167C6.29273 4.92256 6.14542 4.7142 5.98135 4.44654C5.81742 4.17888 5.64732 3.86254 5.47115 3.49753L5.32541 3.23281C5.23429 3.06251 5.10983 2.81455 4.95189 2.48913C4.79386 2.16359 4.65417 1.84869 4.53274 1.5445C4.4842 1.41675 4.41128 1.31948 4.3141 1.25255L4.2685 1.2251C4.23818 1.20081 4.18951 1.17501 4.12275 1.14752C4.05589 1.12007 3.98613 1.10038 3.91318 1.08826L1.41662 1.10642C1.16151 1.10642 0.988409 1.1643 0.897265 1.27991L0.860788 1.3346C0.842565 1.36506 0.833374 1.41371 0.833374 1.48067C0.833374 1.5476 0.851597 1.62975 0.888074 1.72701C1.25252 2.58489 1.64886 3.41225 2.07707 4.20921C2.50528 5.00618 2.87739 5.64815 3.19318 6.13456C3.50902 6.62132 3.83097 7.08073 4.159 7.51254C4.48704 7.94452 4.70418 8.22135 4.81042 8.34297C4.91679 8.46481 5.00034 8.55591 5.06107 8.61673L5.2889 8.83571C5.43468 8.98175 5.64875 9.15665 5.93122 9.36041C6.21375 9.56431 6.52653 9.76503 6.86973 9.96291C7.21299 10.1605 7.61232 10.3217 8.06795 10.4464C8.52351 10.5712 8.96692 10.6213 9.39823 10.5971H10.4461C10.6586 10.5787 10.8196 10.5118 10.929 10.3963L10.9653 10.3506C10.9896 10.3143 11.0125 10.2578 11.0335 10.1819C11.0548 10.1059 11.0654 10.0221 11.0654 9.93098C11.0592 9.66943 11.0791 9.43371 11.1245 9.22384C11.17 9.01403 11.2217 8.85585 11.2796 8.74932C11.3375 8.64288 11.4028 8.55306 11.4754 8.48025C11.5483 8.40728 11.6002 8.36308 11.6306 8.34786C11.6609 8.33255 11.685 8.32216 11.7032 8.31593C11.849 8.26728 12.0206 8.3144 12.2182 8.4575C12.4156 8.60047 12.6008 8.777 12.7741 8.9868C12.9472 9.1968 13.1552 9.43239 13.3981 9.69395C13.6412 9.95559 13.8537 10.1501 14.0359 10.278L14.2181 10.3875C14.3397 10.4606 14.4977 10.5275 14.6921 10.5884C14.8861 10.6492 15.0562 10.6644 15.2022 10.634L17.5346 10.5975C17.7653 10.5975 17.9449 10.5593 18.0722 10.4834C18.1998 10.4073 18.2756 10.3236 18.3 10.2324C18.3244 10.1412 18.3257 10.0377 18.3046 9.922C18.283 9.80658 18.2618 9.72588 18.2406 9.68027Z" fill="black"/>
</svg>
