<svg width="117" height="21" viewBox="0 0 117 21" fill="none" xmlns="http://www.w3.org/2000/svg">
<path fill-rule="evenodd" clip-rule="evenodd" d="M34.798 0L30.6583 2.36329V3.65317H36.0357V0H34.798ZM110.726 4.91278C109.491 4.91278 108.004 5.03748 107.153 5.1089C106.811 5.13755 106.572 5.15763 106.492 5.15763V20.4464H109.922V15.2283C110.423 15.3101 110.93 15.351 111.437 15.3507C114.589 15.3507 117 13.2943 117 10.1628C117 6.60187 114.343 4.91278 110.726 4.91278ZM111.037 12.4961C110.658 12.5047 110.281 12.4446 109.924 12.3186V7.98412C110.103 7.95396 110.697 7.95396 111.037 7.95396C112.551 7.95396 113.571 8.69028 113.571 10.225C113.571 11.6994 112.521 12.4961 111.037 12.4961ZM102.663 15.0811H99.3553V17.377H103.618V20.4464H95.9853V5.09562H103.374V8.16152H99.3553V12.127H102.663V15.0811ZM86.8711 12.6184V5.09562H83.5028V20.4464H86.8711V15.4785H87.489L91.4448 20.4464H92.8735V16.8855C92.6031 16.5196 92.2986 16.1147 91.991 15.7058L91.9908 15.7055C91.5244 15.0854 91.0509 14.4559 90.6786 13.9385C91.0822 12.7746 91.6305 11.0837 91.9752 9.91625L93.4271 5.09562H89.8982L87.6122 12.6167L86.8711 12.6184ZM43.5471 12.771C43.5471 15.2283 45.5562 16.3639 46.792 16.3639V9.17997C45.5526 9.17997 43.5471 10.3137 43.5471 12.771ZM34.395 20.4482V16.119L33.8467 16.1172L30.1999 20.4464H28.3765V5.09562H31.7697V7.43053C31.7697 9.02186 31.6769 11.7198 31.6126 13.5897L31.5911 14.2152H32.1466L34.395 11.3055V5.09562H37.7883V20.4482H34.395ZM2.19489 10.9613C2.19489 14.0308 1.78591 17.07 0 17.7141V21C4.17189 20.5706 5.47025 16.9476 5.47025 11.5433V7.8067H7.69549V20.4553H11.0887V5.09565H2.19489V10.9613ZM53.3401 12.7799C53.3401 10.3226 51.331 9.18705 50.0951 9.18705V16.3639C51.331 16.3639 53.3401 15.2372 53.3401 12.7799ZM50.0966 19.0431C53.8041 19.0431 56.7723 16.4633 56.7723 12.78C56.7723 9.09664 53.8059 6.51689 50.0966 6.51689V4.4215H46.7926V6.50801C43.0851 6.50801 40.1169 9.08777 40.1169 12.7711C40.1169 16.4544 43.0833 19.0342 46.7926 19.0342V20.8759H50.0966V19.0431ZM60.0073 5.09562C60.6949 6.32517 61.6146 7.98409 62.2397 9.21897L62.8898 9.2101C63.4493 8.09838 64.2621 6.63319 64.9159 5.45464L65.115 5.09562H66.5973V9.30236L64.6507 12.496L66.8706 16.2113V20.4482H65.3865L62.8862 15.7819H62.2379L59.7376 20.4482H58.2535V16.2113L60.4698 12.496L58.5232 9.30236V5.09562H60.0073ZM77.5099 5.09562H72.2236L68.0821 20.4464H71.5432L72.2236 17.7425H77.5099L78.1903 20.4446H81.6514L77.5099 5.09562ZM72.9643 14.9214H76.7647L75.1592 8.44363H74.5413L72.9643 14.9214ZM22.3754 5.09562H17.0909L12.9494 20.4464H16.4105L17.0909 17.7425H22.3754L23.0558 20.4446H26.5169L22.3754 5.09562ZM17.8316 14.9214H21.6337L20.0264 8.44363H19.4085L17.8316 14.9214Z" fill="black"/>
</svg>
