<svg width="67" height="25" viewBox="0 0 67 25" fill="none" xmlns="http://www.w3.org/2000/svg">
<path d="M4.84302 0.346436H0V4.97886H4.84302V0.346436Z" fill="#0068B5"/>
<path d="M4.72247 24.4974V7.80587H0.137939V24.5057H4.72247V24.4974ZM35.2199 24.6623V20.5739C34.5477 20.5739 33.979 20.5409 33.5653 20.475C33.0828 20.409 32.7208 20.2442 32.4795 20.0134C32.2382 19.7826 32.0831 19.4529 31.9969 19.0242C31.928 18.6121 31.8935 18.0681 31.8935 17.4087V11.5646H35.2199V7.80587H31.8935V1.28587H27.2918V17.4416C27.2918 18.8099 27.4124 19.9639 27.6537 20.8871C27.895 21.7938 28.3086 22.5356 28.8774 23.0961C29.4462 23.6567 30.2045 24.0523 31.118 24.2996C32.0487 24.5469 33.2206 24.6623 34.6167 24.6623H35.2199ZM61.5809 24.4974V0H56.9792V24.4974H61.5809ZM22.8538 9.43793C21.5784 8.11909 19.7859 7.45968 17.5109 7.45968C16.4078 7.45968 15.4082 7.67399 14.4947 8.10261C13.5985 8.53123 12.8229 9.12471 12.2197 9.88304L11.9612 10.1963V9.91601V7.80587H7.41975V24.5057H11.987V15.6035V16.2135C11.987 16.1145 11.987 16.0156 11.987 15.9167C12.0387 14.3506 12.4352 13.1966 13.1935 12.4548C14.0035 11.6635 14.9859 11.2678 16.1062 11.2678C17.4333 11.2678 18.4502 11.6635 19.1224 12.4218C19.7773 13.1801 20.122 14.2517 20.122 15.62V15.653V24.4809H24.7582V15.01C24.7841 12.6361 24.1291 10.7568 22.8538 9.43793ZM54.5921 16.1145C54.5921 14.9111 54.3681 13.7901 53.9372 12.735C53.4891 11.6964 52.8686 10.7733 52.093 9.98195C51.3002 9.19065 50.3523 8.58069 49.2492 8.13558C48.1462 7.69047 46.9225 7.47616 45.5954 7.47616C44.3373 7.47616 43.148 7.70696 42.045 8.15207C40.9419 8.61366 39.9768 9.22362 39.1667 9.99844C38.3567 10.7733 37.7018 11.6964 37.2364 12.7515C36.7538 13.8066 36.5298 14.9441 36.5298 16.1475C36.5298 17.351 36.7538 18.4885 37.2019 19.5435C37.6501 20.5986 38.2877 21.5218 39.0806 22.2966C39.8734 23.0714 40.8558 23.6979 41.9933 24.143C43.1308 24.6046 44.389 24.8354 45.7333 24.8354C49.6284 24.8354 52.0499 23.1374 53.4977 21.5548L50.1886 19.1479C49.4992 19.9392 47.8446 21.0107 45.7764 21.0107C44.4838 21.0107 43.4152 20.7305 42.6051 20.1535C41.7951 19.593 41.2436 18.8017 40.9506 17.829L40.8989 17.6807H54.5921V16.1145ZM40.9161 14.5814C40.9161 13.3615 42.3811 11.2348 45.5351 11.2184C48.6891 11.2184 50.1713 13.345 50.1713 14.5649L40.9161 14.5814Z" fill="black"/>
<path d="M66.8203 22.3212C66.7341 22.1233 66.6134 21.9585 66.4583 21.8101C66.3032 21.6617 66.1309 21.5463 65.924 21.4639C65.7172 21.3815 65.4932 21.332 65.2691 21.332C65.0278 21.332 64.821 21.3815 64.6142 21.4639C64.4074 21.5463 64.235 21.6617 64.0799 21.8101C63.9248 21.9585 63.8041 22.1233 63.718 22.3212C63.6318 22.519 63.5801 22.7333 63.5801 22.9476C63.5801 23.1784 63.6318 23.3762 63.718 23.5741C63.8041 23.7719 63.9248 23.9367 64.0799 24.0851C64.235 24.2335 64.4074 24.3489 64.6142 24.4313C64.821 24.5137 65.0451 24.5632 65.2691 24.5632C65.5104 24.5632 65.7172 24.5137 65.924 24.4313C66.1309 24.3489 66.3032 24.2335 66.4583 24.0851C66.6134 23.9367 66.7341 23.7719 66.8203 23.5741C66.9064 23.3762 66.9581 23.1619 66.9581 22.9476C66.9581 22.7333 66.9064 22.519 66.8203 22.3212ZM66.5445 23.4751C66.4756 23.64 66.3721 23.7884 66.2515 23.9038C66.1309 24.0192 65.9757 24.1181 65.8034 24.184C65.631 24.25 65.4587 24.2829 65.2519 24.2829C65.0623 24.2829 64.8727 24.25 64.7004 24.184C64.528 24.1181 64.3729 24.0192 64.2522 23.9038C64.1316 23.7884 64.0282 23.64 63.9592 23.4751C63.8903 23.3103 63.8558 23.1454 63.8558 22.9476C63.8558 22.7663 63.8903 22.5849 63.9592 22.4201C64.0282 22.2552 64.1316 22.1068 64.2522 21.9914C64.3729 21.876 64.528 21.7771 64.7004 21.7112C64.8727 21.6453 65.0451 21.6123 65.2519 21.6123C65.4415 21.6123 65.631 21.6453 65.8034 21.7112C65.9757 21.7771 66.1309 21.876 66.2515 21.9914C66.3721 22.1068 66.4756 22.2552 66.5445 22.4201C66.6134 22.5849 66.6479 22.7498 66.6479 22.9476C66.6651 23.1454 66.6134 23.3103 66.5445 23.4751ZM65.5793 23.0795C65.7172 23.063 65.8206 23.0135 65.9068 22.9311C65.993 22.8487 66.0447 22.7333 66.0447 22.5684C66.0447 22.3871 65.993 22.2552 65.8723 22.1563C65.7689 22.0574 65.5793 22.0079 65.3553 22.0079H64.5969V23.8708H64.9589V23.1125H65.2174L65.7 23.8708H66.0791L65.5793 23.0795ZM65.3897 22.8157C65.338 22.8157 65.2863 22.8157 65.2174 22.8157H64.9589V22.2882H65.2174C65.2691 22.2882 65.3208 22.2882 65.3897 22.2882C65.4415 22.2882 65.4932 22.3047 65.5449 22.3212C65.5966 22.3376 65.631 22.3706 65.6483 22.4036C65.6655 22.4366 65.6827 22.486 65.6827 22.552C65.6827 22.6179 65.6655 22.6674 65.6483 22.7003C65.6138 22.7333 65.5793 22.7663 65.5449 22.7828C65.4932 22.7992 65.4415 22.8157 65.3897 22.8157Z" fill="black"/>
</svg>
